<mxfile host="app.diagrams.net" agent="Mozilla/5.0 (Windows NT 10.0; Win64; x64; rv:141.0) Gecko/20100101 Firefox/141.0" version="28.0.7">
  <diagram name="PÃ¡gina-1" id="TMDoCD8hCcpHIJEySzZF">
    <mxGraphModel dx="1026" dy="573" grid="1" gridSize="10" guides="1" tooltips="1" connect="1" arrows="1" fold="1" page="1" pageScale="1" pageWidth="827" pageHeight="1169" math="0" shadow="0">
      <root>
        <mxCell id="0" />
        <mxCell id="1" parent="0" />
        <mxCell id="UQOomTZAaCyZAPaUyG3R-46" style="edgeStyle=orthogonalEdgeStyle;rounded=0;orthogonalLoop=1;jettySize=auto;html=1;entryX=0.5;entryY=0.5;entryDx=0;entryDy=-15;entryPerimeter=0;" parent="1" edge="1">
          <mxGeometry relative="1" as="geometry">
            <mxPoint x="414" y="530" as="targetPoint" />
          </mxGeometry>
        </mxCell>
        <mxCell id="QcQdOetUA6qP5Ii0NC-2-26" style="edgeStyle=orthogonalEdgeStyle;rounded=0;orthogonalLoop=1;jettySize=auto;html=1;" edge="1" parent="1" target="QcQdOetUA6qP5Ii0NC-2-22">
          <mxGeometry relative="1" as="geometry">
            <mxPoint x="140" y="710" as="sourcePoint" />
          </mxGeometry>
        </mxCell>
        <mxCell id="QcQdOetUA6qP5Ii0NC-2-46" style="edgeStyle=orthogonalEdgeStyle;rounded=0;orthogonalLoop=1;jettySize=auto;html=1;" edge="1" parent="1" source="QcQdOetUA6qP5Ii0NC-2-44" target="QcQdOetUA6qP5Ii0NC-2-45">
          <mxGeometry relative="1" as="geometry" />
        </mxCell>
        <mxCell id="QcQdOetUA6qP5Ii0NC-2-44" value="&lt;div&gt;Animal does&amp;nbsp;&lt;/div&gt;&lt;div&gt;a behavior&lt;/div&gt;" style="html=1;dashed=0;whiteSpace=wrap;shape=mxgraph.dfd.start" vertex="1" parent="1">
          <mxGeometry x="371" y="50" width="86" height="30" as="geometry" />
        </mxCell>
        <mxCell id="QcQdOetUA6qP5Ii0NC-2-58" style="edgeStyle=orthogonalEdgeStyle;rounded=0;orthogonalLoop=1;jettySize=auto;html=1;entryX=0.5;entryY=0;entryDx=0;entryDy=0;" edge="1" parent="1" source="QcQdOetUA6qP5Ii0NC-2-45" target="QcQdOetUA6qP5Ii0NC-2-57">
          <mxGeometry relative="1" as="geometry" />
        </mxCell>
        <mxCell id="QcQdOetUA6qP5Ii0NC-2-45" value="List the animals envolved" style="html=1;dashed=0;whiteSpace=wrap;" vertex="1" parent="1">
          <mxGeometry x="364" y="140" width="100" height="50" as="geometry" />
        </mxCell>
        <mxCell id="QcQdOetUA6qP5Ii0NC-2-50" style="edgeStyle=orthogonalEdgeStyle;rounded=0;orthogonalLoop=1;jettySize=auto;html=1;" edge="1" parent="1" source="QcQdOetUA6qP5Ii0NC-2-47" target="QcQdOetUA6qP5Ii0NC-2-49">
          <mxGeometry relative="1" as="geometry" />
        </mxCell>
        <mxCell id="QcQdOetUA6qP5Ii0NC-2-56" style="edgeStyle=orthogonalEdgeStyle;rounded=0;orthogonalLoop=1;jettySize=auto;html=1;" edge="1" parent="1" source="QcQdOetUA6qP5Ii0NC-2-47" target="QcQdOetUA6qP5Ii0NC-2-55">
          <mxGeometry relative="1" as="geometry" />
        </mxCell>
        <mxCell id="QcQdOetUA6qP5Ii0NC-2-47" value="Wright the behavior done and time" style="html=1;dashed=0;whiteSpace=wrap;" vertex="1" parent="1">
          <mxGeometry x="364" y="370" width="100" height="50" as="geometry" />
        </mxCell>
        <mxCell id="QcQdOetUA6qP5Ii0NC-2-49" value="Behaviours" style="shape=cylinder;whiteSpace=wrap;html=1;boundedLbl=1;backgroundOutline=1;" vertex="1" parent="1">
          <mxGeometry x="580" y="355" width="70" height="80" as="geometry" />
        </mxCell>
        <mxCell id="QcQdOetUA6qP5Ii0NC-2-55" value="Print the behaviour log" style="html=1;dashed=0;whiteSpace=wrap;" vertex="1" parent="1">
          <mxGeometry x="364" y="500" width="100" height="50" as="geometry" />
        </mxCell>
        <mxCell id="QcQdOetUA6qP5Ii0NC-2-59" style="edgeStyle=orthogonalEdgeStyle;rounded=0;orthogonalLoop=1;jettySize=auto;html=1;" edge="1" parent="1" source="QcQdOetUA6qP5Ii0NC-2-57" target="QcQdOetUA6qP5Ii0NC-2-47">
          <mxGeometry relative="1" as="geometry" />
        </mxCell>
        <mxCell id="QcQdOetUA6qP5Ii0NC-2-57" value="Get curr time" style="html=1;dashed=0;whiteSpace=wrap;" vertex="1" parent="1">
          <mxGeometry x="364" y="250" width="100" height="50" as="geometry" />
        </mxCell>
        <mxCell id="QcQdOetUA6qP5Ii0NC-2-61" value="End behaviour Log" style="html=1;dashed=0;whiteSpace=wrap;shape=mxgraph.dfd.start" vertex="1" parent="1">
          <mxGeometry x="348" y="630" width="132" height="30" as="geometry" />
        </mxCell>
        <mxCell id="QcQdOetUA6qP5Ii0NC-2-62" style="edgeStyle=orthogonalEdgeStyle;rounded=0;orthogonalLoop=1;jettySize=auto;html=1;entryX=0.5;entryY=0.5;entryDx=0;entryDy=-15;entryPerimeter=0;" edge="1" parent="1" source="QcQdOetUA6qP5Ii0NC-2-55" target="QcQdOetUA6qP5Ii0NC-2-61">
          <mxGeometry relative="1" as="geometry" />
        </mxCell>
      </root>
    </mxGraphModel>
  </diagram>
</mxfile>
